# xmcd
#
# Track frame offsets: 
#        150
#        3698
#        19601
#        38295
#        58546
#        77713
#        98691
#        118021
#        139873
#        160031
#        174960
#        192087
#
# Disc length: 2757 seconds
#
# Revision: 0
# Processed by: cddbd v1.5.2PL0 Copyright (c) Steve Scherf et al.
# Submitted via: ExactAudioCopy v1.0b1
#
DISCID=850ac30c
DTITLE=Tra My - My Angel - Thien Than Cua Toi
DYEAR=2007
DGENRE=Pop
TTITLE0=Intro
TTITLE1=Xa Xoi
TTITLE2=Nhung Dieu Gian Don
TTITLE3=Nhu Giac Chiem Bao (song ca voi Tuong Van)
TTITLE4=Tim Trong Dem
TTITLE5=Du Sao Di Nua
TTITLE6=Dem Trang
TTITLE7=De Mua Dong Troi Qua
TTITLE8=Pho Mua
TTITLE9=Hay Song Voi Trai Tim
TTITLE10=Nhung Dieu Gian Don (Melody)
TTITLE11=Hay Song Voi Trai Tim (Melody)
EXTD=
EXTT0=
EXTT1=
EXTT2=
EXTT3=
EXTT4=
EXTT5=
EXTT6=
EXTT7=
EXTT8=
EXTT9=
EXTT10=
EXTT11=
PLAYORDER=
